<svg width="920" height="560" viewBox="0 0 920 560" fill="none" xmlns="http://www.w3.org/2000/svg">
<g id="tesserpg--logotype">
<path id="Tessercube" d="M50.64 352H80.88V218.8H125.52V192.16H6V218.8H50.64V352ZM153.066 310.72V304.72H218.106V279.76C218.106 254.56 209.706 232.72 172.266 232.72C134.826 232.72 123.786 253.6 123.786 278.32V309.28C123.786 337.36 136.506 354.4 173.226 354.4C187.146 354.4 202.986 352 216.186 346.96L211.626 324.88C198.906 328.72 187.146 330.4 175.866 330.4C158.106 330.4 153.066 324.88 153.066 310.72ZM153.066 275.44C153.066 264.4 158.106 256.72 172.506 256.72C186.906 256.72 190.266 264.4 190.266 275.44V281.2H153.066V275.44ZM323.093 317.92C323.093 293.92 319.973 289.6 287.333 280.96C271.493 276.88 270.773 276.16 270.773 266.8C270.773 259.6 272.933 256.72 285.653 256.72C294.773 256.72 308.933 258.4 317.813 260.08L320.693 236.8C310.613 234.16 296.453 232.72 285.653 232.72C252.293 232.72 241.973 243.04 241.973 266.56C241.973 289.12 245.333 296.32 273.893 303.28C292.853 307.84 294.293 311.44 294.293 318.64C294.293 327.52 292.373 330.4 279.413 330.4C267.413 330.4 254.453 328.24 244.613 325.36L240.533 347.68C251.333 351.52 268.373 354.4 280.853 354.4C316.133 354.4 323.093 340.48 323.093 317.92ZM430.436 317.92C430.436 293.92 427.316 289.6 394.676 280.96C378.836 276.88 378.116 276.16 378.116 266.8C378.116 259.6 380.276 256.72 392.996 256.72C402.116 256.72 416.276 258.4 425.156 260.08L428.036 236.8C417.956 234.16 403.796 232.72 392.996 232.72C359.636 232.72 349.316 243.04 349.316 266.56C349.316 289.12 352.676 296.32 381.236 303.28C400.196 307.84 401.636 311.44 401.636 318.64C401.636 327.52 399.716 330.4 386.756 330.4C374.756 330.4 361.796 328.24 351.956 325.36L347.876 347.68C358.676 351.52 375.716 354.4 388.196 354.4C423.476 354.4 430.436 340.48 430.436 317.92ZM483.3 310.72V304.72H548.34V279.76C548.34 254.56 539.94 232.72 502.5 232.72C465.06 232.72 454.02 253.6 454.02 278.32V309.28C454.02 337.36 466.74 354.4 503.46 354.4C517.38 354.4 533.22 352 546.42 346.96L541.86 324.88C529.14 328.72 517.38 330.4 506.1 330.4C488.34 330.4 483.3 324.88 483.3 310.72ZM483.3 275.44C483.3 264.4 488.34 256.72 502.74 256.72C517.14 256.72 520.5 264.4 520.5 275.44V281.2H483.3V275.44ZM632.207 232.72C621.887 235.6 607.967 243.76 601.487 248.08L599.567 235.12H574.847V352H604.127V276.64C614.687 269.92 623.807 264.64 635.087 259.6L632.207 232.72ZM655.969 352H686.209V300.16H716.929C754.129 300.16 769.009 285.04 769.009 257.2V235.36C769.009 207.28 755.329 192.16 718.369 192.16H655.969V352ZM738.769 237.76V254.08C738.769 267.28 733.729 273.52 716.689 273.52H686.209V218.8H716.689C733.249 218.8 738.769 224.56 738.769 237.76ZM820.89 242.08C820.89 225.76 827.85 217.12 848.97 217.12C864.57 217.12 879.21 218.32 893.85 221.44L897.21 195.04C882.81 191.2 864.33 189.76 851.37 189.76C809.85 189.76 790.65 205.12 790.65 238V306.16C790.65 337.84 809.37 354.4 848.49 354.4C865.29 354.4 885.21 352 902.01 347.2V276.88H873.45V325.36C865.29 326.56 856.89 327.28 848.73 327.28C827.61 327.28 820.89 318.16 820.89 302.56V242.08Z" fill="black"/>
</g>
</svg>
